<?xml version="1.0" standalone="no"?>
<!DOCTYPE svg PUBLIC "-//W3C//DTD SVG 20010904//EN"
 "http://www.w3.org/TR/2001/REC-SVG-20010904/DTD/svg10.dtd">
<svg version="1.0" xmlns="http://www.w3.org/2000/svg"
 width="1280.000000pt" height="1280.000000pt" viewBox="0 0 1280.000000 1280.000000"
 preserveAspectRatio="xMidYMid meet">
<g transform="translate(0.000000,1280.000000) scale(0.100000,-0.100000)"
fill="#000000" stroke="none">
<path d="M8105 12255 c-62 -15 -170 -68 -250 -119 -64 -43 -201 -177 -275
-271 l-46 -57 -269 -2 c-234 -2 -276 -4 -315 -20 -25 -10 -76 -29 -114 -42
-37 -13 -75 -29 -82 -35 -8 -7 -36 -23 -62 -35 -26 -13 -66 -38 -88 -56 -23
-18 -59 -46 -80 -62 -51 -39 -148 -153 -208 -243 l-47 -71 -77 -6 c-42 -3
-126 -8 -187 -12 -60 -3 -153 -17 -205 -29 -52 -13 -122 -27 -155 -31 -33 -3
-82 -15 -110 -25 -27 -11 -86 -29 -130 -40 -44 -11 -93 -29 -110 -39 -16 -9
-54 -23 -82 -30 -29 -6 -63 -20 -75 -30 -13 -9 -41 -23 -63 -30 -22 -7 -53
-23 -70 -35 -16 -12 -41 -25 -55 -28 -14 -4 -48 -21 -77 -39 -29 -18 -75 -46
-103 -63 -28 -16 -67 -42 -87 -57 -20 -16 -39 -28 -44 -28 -4 0 -36 -24 -71
-53 -35 -29 -81 -65 -102 -80 -36 -24 -240 -220 -311 -298 -72 -80 -144 -167
-168 -204 -15 -22 -40 -58 -56 -80 -16 -22 -50 -76 -77 -120 -26 -44 -60 -100
-76 -124 -15 -25 -28 -50 -28 -56 0 -7 -8 -23 -19 -36 -10 -13 -24 -41 -31
-62 -6 -21 -23 -57 -36 -80 -13 -23 -24 -49 -24 -57 0 -8 -9 -31 -19 -51 -10
-19 -27 -64 -37 -99 -9 -36 -24 -75 -31 -86 -8 -12 -18 -49 -24 -84 -5 -34
-20 -94 -33 -133 -13 -40 -26 -108 -29 -152 -3 -44 -14 -114 -23 -155 -14 -61
-17 -123 -17 -335 1 -269 10 -376 43 -505 11 -41 24 -109 30 -150 5 -41 21
-103 35 -138 14 -34 29 -84 32 -111 6 -55 2 -60 -78 -79 -86 -21 -203 -91
-287 -170 -47 -45 -122 -149 -122 -168 0 -6 -9 -23 -20 -36 -30 -39 -72 -244
-68 -331 9 -164 86 -341 196 -455 110 -112 209 -164 377 -197 139 -28 149 -36
160 -122 3 -32 17 -83 30 -113 13 -30 27 -65 30 -77 11 -38 83 -139 142 -198
67 -67 148 -122 199 -137 59 -16 136 -103 159 -178 10 -33 24 -65 32 -71 7 -6
20 -34 28 -62 8 -27 26 -69 40 -93 14 -23 25 -49 25 -57 0 -8 16 -44 35 -80
19 -36 35 -75 35 -85 0 -11 8 -30 18 -43 10 -13 24 -40 31 -59 13 -33 25 -59
100 -221 17 -37 38 -86 46 -109 8 -24 24 -57 35 -75 11 -18 20 -38 20 -46 0
-7 15 -42 34 -78 18 -36 36 -79 40 -96 4 -16 13 -37 20 -45 7 -8 20 -35 30
-60 10 -25 27 -62 38 -84 11 -21 28 -63 39 -94 11 -31 25 -63 33 -71 7 -9 19
-34 26 -56 7 -22 26 -64 41 -94 16 -30 29 -61 29 -69 0 -8 9 -29 20 -47 11
-18 27 -51 35 -75 15 -42 47 -114 106 -235 16 -33 29 -66 29 -74 0 -7 13 -37
29 -65 16 -28 32 -64 35 -80 4 -17 17 -43 28 -59 11 -15 27 -49 34 -74 8 -25
22 -59 33 -77 10 -17 22 -42 26 -56 8 -28 64 -152 101 -223 13 -26 24 -53 24
-60 0 -8 15 -43 34 -78 18 -35 36 -77 40 -92 4 -16 18 -45 31 -65 13 -20 27
-50 31 -67 3 -16 19 -53 35 -81 16 -28 29 -57 29 -63 0 -13 53 -131 96 -214
13 -26 24 -53 24 -61 0 -8 16 -44 35 -80 19 -37 35 -72 35 -78 0 -6 16 -42 35
-79 19 -38 35 -77 35 -87 0 -11 9 -31 20 -45 12 -14 29 -50 39 -79 10 -29 28
-69 39 -88 11 -19 25 -53 32 -75 7 -22 21 -51 31 -64 11 -13 19 -32 19 -41 0
-10 13 -43 30 -75 16 -31 34 -73 40 -93 13 -46 60 -99 105 -118 47 -19 122
-17 170 5 48 21 95 73 95 104 0 12 14 51 30 85 17 35 30 73 30 84 0 11 12 40
26 65 15 24 31 65 35 90 5 24 18 56 29 70 11 14 22 41 26 62 3 20 15 51 25 69
10 18 26 58 35 90 9 31 23 64 30 73 8 8 17 31 20 50 4 19 20 61 35 95 16 34
29 67 29 75 0 8 14 41 30 74 17 33 30 68 30 77 0 10 14 44 30 75 17 31 30 64
30 74 0 9 13 46 30 81 16 34 30 70 30 78 0 8 8 31 19 50 10 19 26 60 35 91 8
31 22 62 30 68 8 7 20 35 26 63 6 29 19 65 30 83 10 17 24 52 30 78 6 27 19
60 30 75 11 15 24 49 30 75 6 27 17 58 25 71 8 12 22 45 30 72 8 27 24 67 35
89 11 21 20 46 20 55 0 8 14 42 30 75 16 33 30 69 30 79 0 11 11 38 24 60 13
23 27 57 31 76 4 19 20 62 36 95 16 33 29 68 29 78 0 10 11 37 24 60 13 23 27
58 31 77 4 19 18 53 31 76 13 22 24 50 24 61 0 11 11 40 24 65 13 25 27 60 31
79 4 19 21 58 36 88 16 30 29 63 29 75 0 12 14 48 30 80 17 32 30 68 30 78 0
11 11 38 24 61 13 23 27 58 31 77 4 19 15 49 25 65 10 17 24 50 30 75 7 25 23
65 36 90 13 25 24 53 24 64 0 11 11 38 24 60 13 23 28 59 32 81 4 21 20 63 35
93 16 30 29 63 29 74 0 12 9 35 19 52 11 17 27 57 36 88 9 32 20 60 25 63 5 3
16 31 25 63 9 31 22 66 29 77 7 11 21 47 31 80 13 46 27 70 62 104 25 23 60
49 77 56 104 44 244 175 283 265 8 19 22 42 30 52 19 21 53 145 79 285 6 30
27 40 160 73 63 16 127 38 143 49 16 12 34 21 39 21 12 0 80 54 137 108 52 50
94 110 138 197 48 97 75 261 59 361 -22 134 -33 170 -73 252 -32 65 -59 101
-128 170 -101 101 -135 127 -190 147 -22 7 -50 20 -63 29 -13 8 -50 19 -83 25
-82 15 -93 28 -76 88 7 27 19 80 26 118 7 39 20 93 28 122 8 28 20 113 27 190
6 76 15 180 21 231 5 51 7 137 3 190 -8 137 -52 497 -68 557 -7 28 -21 82 -31
120 -9 39 -30 104 -45 145 -16 41 -31 91 -35 110 -4 19 -18 53 -30 75 -13 22
-28 58 -35 80 -7 22 -19 47 -26 56 -8 8 -19 31 -26 50 -6 19 -24 55 -40 80
-15 25 -28 51 -28 56 0 6 -13 28 -28 49 -16 21 -35 51 -43 65 -13 25 -59 94
-120 179 -26 38 -213 263 -243 294 -17 17 -18 28 -11 140 25 354 -15 577 -138
772 -70 112 -92 139 -188 233 -61 60 -99 106 -99 118 0 62 190 223 300 254 25
7 56 20 70 30 14 9 34 19 46 23 11 3 36 29 54 57 29 45 32 56 28 108 -3 46
-10 65 -37 99 -19 22 -47 46 -64 51 -40 14 -130 12 -192 -4z"/>
</g>
</svg>
